. 
  
http://www.torrenting.com/        :     Greatest Movie Tracker on The Net!!!
 
http://www.Torrenting.com          :     Once & For all ;)


               www . Torrenting . Com 

(((((((((((((= Enjoy No RAR releases =))))))))))))))))))))


...................................NFO:....................................

.[img]http://img857.imageshack.us/img857/6506/milf211.jpg[/img]

[color=blue][size=5][b]Milf.2010.Unrated.BDRip.XVID.AC3.HQ.Hive-CM8[/b][/size][/color]


[b]Thx Hive

CM8 Doing It Right The First Time :D

Source Bluray

Video: 720x400 @bitrate 1800 2pass
Audio: English DTS to AC3 5.1 @448
Sample: yes included
Subs: yes english in srt /subs[/b]


[url]http://www.imdb.com/title/tt1730704/[/url]


Complete name                    : Milf.2010.Unrated.BDRip.XVID.AC3.HQ.Hive-CM8.avi
Format                           : AVI
Format/Info                      : Audio Video Interleave
File size                        : 1.39 GiB
Duration                         : 1h 28mn
Overall bit rate                 : 2 257 Kbps
Writing application              : Nandub v1.0rc2
Writing library                  : Nandub build 1853/release

Video
ID                               : 0
Format                           : MPEG-4 Visual
Format profile                   : Advanced Simple@L5
Format settings, BVOP            : Yes
Format settings, QPel            : Yes
Format settings, GMC             : No warppoints
Format settings, Matrix          : Default (H.263)
Muxing mode                      : Packed bitstream
Codec ID                         : XVID
Codec ID/Hint                    : XviD
Duration                         : 1h 28mn
Bit rate                         : 1 799 Kbps
Width                            : 720 pixels
Height                           : 400 pixels
Display aspect ratio             : 16:9
Frame rate                       : 23.976 fps
Color space                      : YUV
Chroma subsampling               : 4:2:0
Bit depth                        : 8 bits
Scan type                        : Progressive
Bits/(Pixel*Frame)               : 0.261
Stream size                      : 1.11 GiB (80%)
Writing library                  : XviD 1.2.1 (UTC 2008-12-04)

Audio
ID                               : 1
Format                           : AC-3
Format/Info                      : Audio Coding 3
Mode extension                   : CM (complete main)
Codec ID                         : 2000
Duration                         : 1h 28mn
Bit rate mode                    : Constant
Bit rate                         : 448 Kbps
Channel(s)                       : 6 channels
Channel positions                : Front: L C R, Side: L R, LFE
Sampling rate                    : 48.0 KHz
Bit depth                        : 16 bits
Stream size                      : 283 MiB (20%)
Alignment                        : Split accross interleaves
Interleave, duration             : 42 ms (1.00 video frame)
Interleave, preload duration     : 500 ms



Jack Cullison ... Brandon Murphy
Philip Marlatt ... Anthony Reese
Joseph Booton ... Nate
Ramon Camacho ... Ross
Amy Lindsay ... Holly Reese
Molinee Green ... Lori Murphy
Rebecca Reynolds ... Caroline
Silvija Duran ... Mindy
Rachel Riley ... Erica


A group of nerdy college guys who can't seem to connect with
girls their own age discover the excitement of hooking up with
sexy older women. 
 


[img]http://img36.imageshack.us/img36/9335/39737951.png[/img]
[img]http://img90.imageshack.us/img90/9889/56287550.png[/img]
[img]http://img689.imageshack.us/img689/2373/mmmzx.png[/img]
[img]http://img35.imageshack.us/img35/356/mmmmeb.png[/img]
[img]http://img263.imageshack.us/img263/7509/mmmmmqt.png[/img]
[img]http://img853.imageshack.us/img853/9782/mmmmmm.png[/img]




Greetz

ViSiON,LUSi,SANTi,MAGNET,THC,T0XiCiNK,LKRG,IMAGiNE,WBZ,FLAWL3SS,NOVA
Vik,OneTwo,Rapeseed,D2U,SAFC,goldadvance,MEMORY100,KaN1vE,Unevano,Mr Hive
and all P2P groups 
Great Work Guys :D

CM8@hushmail.com